<svg width="200" height="304" xmlns="http://www.w3.org/2000/svg">
 <g>
  <title>background</title>
  <rect fill="none" id="canvas_background" height="306" width="202" y="-1" x="-1"/>
 </g>

 <g>
  <title>Layer 1</title>
  <g id="svg_139" fill="#f0222c">
   <path fill="#f0222c" id="svg_140" d="m100.6,132.98051c0.2,-1.2 0.5,-1.7 0.4,-2.3c-0.4,-12.4 -0.7,-24.6 -1.3,-37c-0.2,-3.3 -0.2,-7 -2.7,-9.8c-4.3,-4.9 -9,-8.8 -15.7,-9.7c-3.1,-0.4 -6.4,-1 -10,-1.6c0.5,2 0.7,3.2 1.1,4.4c4.5,12.9 8.9,25.8 13.6,38.5c0.7,2 2.1,3.9 3.5,5.6c2.6,3.2 5.6,6.3 8.4,9.3c0.8,0.9 1.6,1.6 2.7,2.6z"/>
   <path fill="#f0222c" id="svg_141" d="m134.1,73.3c-1.3,0 -2.2,-0.1 -3,0c-4.3,0.9 -8.6,1.5 -12.8,2.9c-5,1.7 -8.2,5.8 -11.3,9.9c-0.6,0.8 -0.9,1.9 -1,3c-0.7,13.5 -1.3,27 -1.9,40.5c0,1.1 0.2,2.2 0.3,3.3c0.4,0.3 0.9,0.6 1.3,1c0.4,-0.9 0.6,-1.9 1.2,-2.6c2.4,-2.9 5.1,-5.7 7.5,-8.7c1.8,-2.2 3.9,-4.6 4.9,-7.1c4,-10.1 7.5,-20.4 11.2,-30.6c1.2,-3.9 2.3,-7.5 3.6,-11.6z"/>
   <path fill="#b9b9b9" id="svg_142" d="m79.4,165.8c2.9,-4.6 7.3,-6.7 11.6,-8.8c0.7,-0.3 1.4,-0.7 2.1,-1.1c3.2,-2 4.1,-4.1 3.3,-7.9c-0.8,-4.7 -1.7,-9.2 -2.3,-14c-0.7,-5.1 -1.3,-5.6 -6,-3.3c-0.1,0 -0.1,0.1 -0.2,0.1c-9.1,4.5 -13.4,14.7 -10.7,26.1c0.7,2.7 1.4,5.3 2.2,8.9z"/>
   <path fill="#b9b9b9" id="svg_143" d="m126.4,164.8c0.7,-4.1 1.9,-8.6 2.2,-13.2c0.8,-10.1 -4.3,-18.5 -13.1,-21.7c-3,-1.1 -3.8,-0.6 -4.2,2.5c-0.7,4.5 -1.4,9 -2.1,13.5c-1.2,6.8 -0.5,8 5.7,11.5c3.9,2 7.5,4.7 11.5,7.4z"/>
   <path fill="#f0222c" id="svg_144" d="m72.7,50.2c0,0.2 -0.1,0.5 -0.1,0.7c6.6,0 10.1,3.8 12.6,9.3c2.8,6.5 6.3,12.7 11.7,17.4c0.8,0.7 1.7,1.3 2.9,2.2c0.3,-1.2 0.6,-1.8 0.6,-2.5c-0.1,-6.3 -0.3,-12.5 -0.6,-18.8c-0.1,-3.1 -1.7,-5.3 -4.8,-6.1c-5.1,-1.3 -10.1,-2.7 -15.3,-3.7c-2,0.2 -4.5,1.2 -7,1.5z"/>
   <path fill="#f0222c" id="svg_145" d="m132.8,50.7c-0.7,-0.4 -1.1,-0.6 -1.4,-0.7c-7.8,-2.2 -14.9,0.5 -22,3c-2.6,0.9 -3.8,2.8 -3.9,5.5c-0.2,6.3 -0.4,12.5 -0.5,18.8c0,0.7 0.2,1.4 0.4,2.6c1,-0.7 1.8,-1 2.3,-1.6c2.5,-2.8 5.3,-5.6 7.4,-8.8c2.4,-3.8 4.5,-7.9 6.4,-12.1c1.6,-3.3 4.1,-5.4 7.6,-6.1c1,-0.1 2.1,-0.2 3.7,-0.6z"/>
   <path fill="#b9b9b9" id="svg_146" d="m110.8,219.9c0.3,0 0.7,0 1,0.1c0.8,-2.1 1.7,-4.3 2.4,-6.4c1.7,-4.8 3.8,-9.5 5,-14.4c2.9,-11.6 1.1,-23.1 -0.3,-34.6c-0.4,-3.1 -2.5,-4.9 -6,-5.2c-1.3,8.3 0.5,16.5 1.2,24.7c0.6,6.8 0.7,13.7 0.2,20.5c-0.3,3.7 -2.3,7.1 -3.3,10.6c-0.3,1.6 -0.1,3.2 -0.2,4.7z"/>
   <path fill="#b9b9b9" id="svg_147" d="m92.3,159.2c-4.1,0.6 -5.9,2.3 -6.2,6.1c-0.5,5.2 -1.3,10.3 -1.4,15.5c-0.1,5.4 -0.3,10.8 0.9,16c1.9,7.9 5,15.5 7.6,23.6c2.6,-2.3 1.4,-4.6 0.5,-6.4c-4.8,-10.1 -4.2,-20.7 -2.5,-31.3c1.2,-7.8 1.8,-15.5 1.1,-23.5z"/>
   <path fill="#b9b9b9" id="svg_148" d="m95.4,256c5.2,-6.1 -1.5,-42.6 -7.7,-45.1c0,5.2 -0.1,10.5 0,15.8c0.2,6.3 0.7,12.5 1,18.8c0.3,4.9 3.1,7.9 6.7,10.5z"/>
   <path fill="#b9b9b9" id="svg_149" d="m118.3,210.4c-0.3,-0.1 -0.5,-0.2 -0.8,-0.3c-0.7,1.3 -1.7,2.6 -2.2,4.1c-1.1,2.9 -1.9,6 -2.9,8.8c-2.7,7.4 -4.4,15.1 -4.8,23c-0.2,3.4 -0.1,7.1 2.4,10.2c3.2,-2.8 6.4,-5.3 6.6,-9.9c0.3,-8.6 0.9,-17.3 1.3,-26c0.1,-3.3 0.2,-6.5 0.4,-9.9z"/>
   <path fill="#b9b9b9" id="svg_150" d="m122.2,207.7c-2.4,0.8 -2.7,2.5 -2.7,4.2c-0.1,4.9 -0.3,9.6 -0.1,14.5c0.2,6.9 0.4,13.8 -1.5,20.5c-0.9,3.2 -0.2,5.3 2.7,6.8c0.2,-0.1 0.4,-0.2 0.6,-0.4c0.3,-0.2 0.5,-0.5 0.7,-0.8c2.9,-5.7 5.1,-11.7 4.2,-18.3c-1,-7.2 -2.1,-14.3 -3.1,-21.4c-0.4,-1.7 -0.5,-3.4 -0.8,-5.1z"/>
   <path fill="#b9b9b9" id="svg_151" d="m84.5,253.8c3.9,-2.7 3.4,-2.7 2.9,-6.7c-0.8,-6.2 -1.2,-12.4 -1.5,-18.6c-0.3,-5.9 -0.2,-11.8 -0.4,-17.6c0,-1.1 -1.1,-2.1 -1.6,-3.2c-0.3,0.1 -0.6,0.2 -0.9,0.4c-0.5,3.9 -1,7.7 -1.5,11.6c-0.8,6.3 -1.9,12.5 -2.2,18.8c-0.3,5.6 2,10.6 5.2,15.3z"/>
   <path fill="#b9b9b9" id="svg_152" d="m91.3,297.4l0.9,0c0.1,-0.9 0.2,-1.9 0.3,-2.8c0.7,-8.2 1.2,-16.3 2,-24.5c0.5,-5.6 1.8,-11.4 -3.1,-15.7c-0.9,-0.8 -2.7,-1.6 -3.5,-1.3c-1.5,0.7 -3.3,1.8 -2.6,4.4c0.8,2.8 1.5,5.7 1.9,8.6c1.3,9.7 2.5,19.5 3.8,29.2c0,0.6 0.2,1.3 0.3,2.1z"/>
   <path fill="#b9b9b9" id="svg_153" d="m113.2,297.3l0.9,0c0.1,-0.8 0.3,-1.5 0.4,-2.3c0.9,-8 1.6,-15.9 2.7,-23.9c0.6,-4.8 1.8,-9.4 2.8,-14.1c0.5,-2.3 -1.2,-3.4 -2.6,-4.2c-0.7,-0.4 -2.4,0.5 -3.3,1.2c-4.2,3.5 -4.1,8.3 -3.7,13.3c0.9,9.1 1.5,18.3 2.3,27.4c0.2,0.9 0.4,1.8 0.5,2.6z"/>
   <path fill="#b9b9b9" id="svg_154" d="m124.9,216.5l0.4,0c0.1,-2.4 0.3,-5 0.4,-7.4c0.2,-3.3 -0.1,-6.9 0.8,-10c2.5,-8.6 2.1,-17 0.4,-25.7c-0.8,-4.1 -2.1,-7.7 -5.9,-9.4c0.5,5.4 1.4,11.1 1.5,16.7c0.1,6.2 -1.1,12.5 -0.7,18.7c0.3,5.7 2,11.4 3.1,17.1z"/>
   <path fill="#b9b9b9" id="svg_155" d="m80.1,217c1,-4.6 1.9,-8.6 2.6,-12.7c0.4,-2.5 0.5,-5.1 0.4,-7.6c-0.1,-5 -0.7,-9.9 -0.5,-14.9c0.2,-5.9 1,-11.7 1.6,-18.4c-1.8,2 -4,3.4 -4.5,5.4c-2.3,8.6 -4.3,17.3 -1.8,26.4c1.4,5.1 2.1,10.2 1.7,15.6c-0.1,1.8 0.3,3.9 0.5,6.2z"/>
  </g>
  <path id="svg_156" fill="#f0222c" d="m105.7,23.9c-0.4,0 -0.8,-0.1 -1.2,-0.1c-0.3,1 -1,2.1 -0.9,3.1c0.6,7.1 1.3,14.2 2,21.3c0.3,3.3 0.7,3.8 4,2.7c4.2,-1.2 8.2,-2.5 12.1,-3.8c-2.3,-1.8 -5.1,-3.9 -7.8,-6c-5.7,-4.2 -10,-9.2 -8.2,-17.2z"/>
  <path id="svg_157" fill="#f0222c" d="m83.8,46.615684c3.7,1.1 7.6,2.3 11.6,3.5c3.5,1.1 4,0.8 4.3,-2.7c0,-0.7 0.2,-1.4 0.3,-2.1c1.3,-6.4 2.3,-12.8 1.8,-19.4c-0.1,-1 -0.8,-1.9 -1.1,-2.9c-0.3,0.1 -0.5,0.2 -0.8,0.3c0.1,0.9 0.3,1.8 0.4,2.8c0.2,4.7 -1.6,8.5 -5.2,11.6c-4,3 -7.9,6 -11.3,8.9z"/>
  <path id="svg_158" fill="#b9b9b9" d="m78.2,55c-3.9,-2.6 -8.6,-2.9 -11.5,-0.8c-4.8,3.7 -6.8,13.4 -3.5,18.5c5.1,-5.9 10,-11.9 15,-17.7z"/>
  <path id="svg_159" fill="#b9b9b9" d="m127.1,55c5.1,6 10,11.9 15,17.7c0.3,-0.1 0.7,-0.2 1,-0.3c0.1,-2.9 0.7,-6 0.3,-8.9c-1.1,-9.8 -8.6,-13.4 -16.3,-8.5z"/>
  <path id="svg_160" fill="#b9b9b9" d="m135.9,68.4c-0.4,4.3 -0.8,8.1 -1.1,12.1c-0.2,3.1 -0.6,6.4 -0.3,9.5c0.5,4.7 2.7,8.6 5.5,11.8c0.4,-5.9 0.5,-12 1.1,-17.9c0.8,-5.9 -1.5,-10.7 -5.2,-15.5z"/>
  <path id="svg_161" fill="#b9b9b9" d="m64.6,102.2c3.8,-3.7 6.3,-8.1 6.3,-13.4c-0.1,-6.7 -0.9,-13.4 -1.4,-20.2c-4.4,4.8 -6.1,10.2 -5.2,16.7c0.7,5.7 1.6,11.2 0.3,16.9z"/>
  <path id="svg_162" fill="#f0222c" d="m87,73.2c-2,-4.9 -3.7,-8.8 -5.5,-12.9c-0.8,-1.7 -2.3,-2.5 -3.9,-1.1c-3.3,2.9 -5.7,6.5 -6.5,11.1c5.3,1 10.2,1.9 15.9,2.9z"/>
  <path id="svg_163" fill="#f0222c" d="m118.3,72.88051c5.7,-1 10.6,-1.9 15.7,-2.9c-0.6,-4.3 -2.8,-7.3 -5.4,-10.1c-2.1,-2.3 -3.9,-2.1 -5.2,0.7c-1.7,3.7 -3.1,7.5 -5.1,12.3z"/>
  <path id="svg_164" fill="#b9b9b9" d="m63,107.7c-0.3,-0.2 -0.5,-0.4 -0.8,-0.6c-2.9,8.6 -5.9,17.2 -8.8,25.9c6.6,-7.9 11.5,-16.6 14.5,-26.3c-1.9,0.3 -3.4,0.7 -4.9,1z"/>
  <path id="svg_165" fill="#b9b9b9" d="m137.6,106.7c1.1,6.4 9.4,21.9 13.9,25.8c-1.2,-4.3 -2.3,-8.5 -3.8,-12.7c-1.5,-4.3 -3.2,-8.4 -5,-12.6c-0.2,0.2 -0.4,0.4 -0.6,0.6c-1.5,-0.4 -3.1,-0.8 -4.5,-1.1z"/>
  <path id="svg_166" fill="#b9b9b9" d="m99,155.7c-3.7,0.3 -4.2,0.9 -4.2,4c0.1,3.3 -0.2,6.6 0,9.9c0.3,5.9 0.8,11.7 1.2,17.5l0.8,0c2.1,-10.5 2.1,-20.9 2.2,-31.4z"/>
  <path id="svg_167" fill="#b9b9b9" d="m108.9,187.1c0.2,-1.4 0.4,-2.5 0.6,-3.8c0.4,-3.9 1,-7.6 1.1,-11.5c0.1,-4.2 -0.4,-8.4 -0.2,-12.6c0.2,-2.9 -1.1,-3.8 -3.7,-4c-1,6 0.4,27.5 2.2,31.9z"/>
  <path id="svg_168" fill="#b9b9b9" d="m128.7,140.2c-1,-4.5 -1.7,-9 -2.9,-13.5c-0.8,-3.1 -2.6,-4.2 -5.5,-4.1c-2.8,0.1 -5.3,1.9 -6.1,4.6c10.6,6.1 10.6,6.1 14.5,13z"/>
  <path id="svg_169" fill="#b9b9b9" d="m76.8,139.7c0.2,0.1 0.5,0.2 0.7,0.3c1.7,-7.4 7.6,-10.4 13.9,-12.8c-1.8,-3.4 -4.5,-5 -7.5,-4.7c-3.1,0.3 -4.3,2.7 -4.9,5.4c-0.8,3.9 -1.5,8 -2.2,11.8z"/>
  <path id="svg_170" fill="#b9b9b9" d="m109.8,213.4c3.9,-7.1 4.3,-14.8 1.7,-31.4c-2.2,7.1 -3.3,27.4 -1.7,31.4z"/>
  <path id="svg_171" fill="#b9b9b9" d="m95.5,213.9c1.5,-6 0.3,-25.6 -1.8,-31.2c-0.4,3.8 -0.6,7.5 -1.1,11.2c-1,6.8 -0.5,13.4 2.9,20z"/>
  <path id="svg_172" fill="#b9b9b9" d="m156.8,138.3c0.5,-6.1 -4.9,-27.2 -7.7,-31c0.6,10.6 2.2,21.2 7.7,31z"/>
  <path id="svg_173" fill="#b9b9b9" d="m55.7,108.2c-3.8,9.8 -6.9,19.8 -7.8,31.1c5.7,-10.1 7.8,-20.4 7.8,-31.1z"/>
  <path id="svg_174" fill="#b9b9b9" d="m159.7,139.4c1.8,-0.7 4.2,-0.5 3.3,-3.2c-2.1,-7.3 -4.4,-14.7 -6.8,-22c-1.2,-3.7 -2.9,-7.2 -4.5,-10.7c-0.2,0.1 -0.5,0.2 -0.7,0.3c4.8,11.3 7.6,23 8.7,35.6z"/>
  <path id="svg_175" fill="#b9b9b9" d="m53.5,105.2c-0.3,-0.1 -0.5,-0.2 -0.8,-0.3c-1.2,3 -2.6,6 -3.7,9c-2.2,7.1 -4.3,14.3 -6.5,21.4c-0.9,2.8 -0.1,4 3.1,3.7c1,-11.7 3.9,-23 7.9,-33.8z"/>
  <path id="svg_176" fill="#b9b9b9" d="m99.9,150.9c0.4,-0.1 0.7,-0.2 1.1,-0.2c0.1,-1.7 0,-3.5 0.4,-5.3c1,-5.1 -0.1,-9.1 -6.2,-11.4c1.7,5.9 3.2,11.4 4.7,16.9z"/>
  <path id="svg_177" fill="#b9b9b9" d="m104.4,150.6c3.1,-5 4.9,-10.2 4.9,-16c-4.4,1.6 -6.1,4.5 -5.5,8.7c0.4,2.4 0.4,4.7 0.6,7.3z"/>
  <path id="svg_178" fill="#b9b9b9" d="m116.5,296.9c0.3,0.1 0.7,0.2 1,0.3c0.2,-0.8 0.6,-1.6 0.7,-2.4c0.1,-1.4 -0.2,-2.8 0,-4.3c0.5,-3.9 1.5,-7.7 1.8,-11.6c0.3,-3.7 0.1,-7.3 0.1,-11c-0.4,0 -0.9,0 -1.3,0c-0.6,9.7 -1.5,19.4 -2.3,29z"/>
  <path id="svg_179" fill="#b9b9b9" d="m88,297.4c0,-5.4 0.3,-10.2 -0.1,-15.1c-0.4,-4.8 -1.4,-9.4 -2.1,-14.1c-0.3,0 -0.5,0.1 -0.8,0.1c0,3.3 -0.2,6.6 0.1,9.9s0.6,6.8 1.7,10c0.9,2.8 -1.2,6.4 1.2,9.2z"/>
  <path id="svg_180" fill="#b9b9b9" d="m85.4,120.4c-1.5,-4.7 -3,-9.2 -4.6,-13.7c-0.1,0.1 -0.2,0.1 -0.3,0.2c-0.2,5 -0.5,10 -0.7,15.2c1.9,-0.7 3.5,-1.1 5.6,-1.7z"/>
  <path id="svg_181" fill="#b9b9b9" d="m125.7,121.9c-0.4,-5.1 -0.7,-9.6 -1,-14.2c-0.2,0 -0.4,0 -0.6,-0.1c-1.3,4.3 -2.6,8.5 -4,12.9c2.2,0.6 3.7,1 5.6,1.4z"/>
  <path id="svg_182" fill="#b9b9b9" d="m100.5,7.8c-3,1.7 -6,3.1 -8.7,5c-0.9,0.6 -0.7,2.3 1.1,2.3c1.4,0 2.8,-0.3 4.3,-0.6c3.8,-0.9 4.5,-2.1 3.3,-6.7z"/>
  <path id="svg_183" fill="#b9b9b9" d="m104.8,8c-1,4.6 -0.4,5.7 3.4,6.6c0.8,0.2 1.6,0.5 2.3,0.4c1.1,-0.1 2.2,-0.4 3.4,-0.7c-0.8,-0.9 -1.5,-1.9 -2.4,-2.7s-2,-1.4 -3.1,-1.9c-1.2,-0.7 -2.4,-1.2 -3.6,-1.7z"/>
  <path id="svg_184" fill="#b9b9b9" d="m75.3,176.7c2.8,-5.9 3.8,-11.7 0,-18.2l0,18.2z"/>
  <path id="svg_185" fill="#b9b9b9" d="m128.9,177.5l0.9,0c0,-6.1 0,-12.1 0,-18.2c-1.2,1.9 -2.3,4.1 -2.2,6.1c0.1,4.1 0.9,8.2 1.3,12.1z"/>
  <g id="svg_186" fill="#b9b9b9">
   <path fill="#b9b9b9" id="svg_187" d="m94.9,31.8c4.4,-4.3 4.4,-7.5 0,-12.3l0,12.3z"/>
   <path fill="#b9b9b9" id="svg_188" d="m110.4,19.2c-4.4,5.7 -4.5,9.3 -0.4,13.1c1.4,-4.5 0.4,-8.6 0.4,-13.1z"/>
   <path fill="#b9b9b9" id="svg_189" d="m58.1,97.1c1.5,-7.2 3,-14.3 4.8,-22.2c-4.5,7.2 -5,14.7 -4.8,22.2z"/>
   <path fill="#b9b9b9" id="svg_190" d="m142.4,74.9c1.6,7.8 3.3,15.4 5,23c0.2,-7.9 -0.4,-15.9 -5,-23z"/>
   <path fill="#b9b9b9" id="svg_191" d="m143.3,84.6c-0.3,0 -0.5,0 -0.8,0c0,4.2 -0.1,8.3 0.1,12.5c0,0.6 0.8,1.2 1.2,1.9c0.5,-0.7 1.4,-1.4 1.3,-2c-0.6,-4.3 -1.2,-8.4 -1.8,-12.4z"/>
   <path fill="#b9b9b9" id="svg_192" d="m63,84.6c-0.3,0 -0.7,0 -1,0c-0.6,4.1 -1.2,8.2 -1.6,12.3c-0.1,0.7 0.9,1.4 1.4,2.1c0.4,-0.7 1,-1.3 1.1,-2c0.2,-2 0.1,-4.1 0.1,-6.2s0,-4.2 0,-6.2z"/>
   <path fill="#b9b9b9" id="svg_193" d="m167.9,155.3c-0.2,0.3 -0.4,0.6 -0.6,0.8c0.9,2.5 1.8,5.2 2.9,7.7c0.2,0.6 1,1 1.5,1.5c0.1,-0.8 0.5,-1.6 0.3,-2.3c-0.6,-2.1 -1.4,-4.3 -2.3,-6.3c-0.2,-0.5 -1.1,-0.8 -1.8,-1.4z"/>
   <path fill="#b9b9b9" id="svg_194" d="m32.9,165.1c0.4,0.1 0.7,0.3 1.1,0.4c2.1,-2.7 2.7,-6.1 3.9,-9.2c0,-0.1 -0.6,-0.7 -0.9,-0.7c-0.4,0.1 -1,0.4 -1.2,0.8c-0.7,1.8 -1.4,3.7 -2,5.5c-0.5,0.8 -0.7,2.1 -0.9,3.2z"/>
   <path fill="#b9b9b9" id="svg_195" d="m58.5,112.5c1.5,-3.8 2.8,-7.2 4.5,-11.2c-4,2.1 -5.8,7.1 -4.5,11.2z"/>
   <path fill="#b9b9b9" id="svg_196" d="m146.5,111.9c1.1,-4.4 -0.4,-8.4 -4.1,-9.9c1.5,3.4 2.8,6.8 4.1,9.9z"/>
   <path fill="#b9b9b9" id="svg_197" d="m174.5,145.5c-0.5,0.5 -1.1,0.8 -1.4,1.3c-0.2,0.4 -0.2,1.2 0,1.4c1.3,1 2.7,2 4.2,2.8c0.3,0.2 1.1,0 1.4,-0.3s0.3,-1.2 0.1,-1.4c-1.2,-1.4 -2.6,-2.5 -4.3,-3.8z"/>
   <path fill="#b9b9b9" id="svg_198" d="m30.8,145.5c-1.3,1 -2.7,1.8 -4.1,2.9c-0.4,0.4 -0.3,1.3 -0.4,2c0.7,0.1 1.5,0.4 2.1,0.1c0.9,-0.3 1.5,-1.2 2.4,-1.6c2.2,-1 1.9,-2 0,-3.4z"/>
   <path fill="#b9b9b9" id="svg_199" d="m33.7,154.3c-2.4,-0.3 -5.7,5.1 -5,8.2c2.1,-2.3 3.3,-5.3 5,-8.2z"/>
   <path fill="#b9b9b9" id="svg_200" d="m163.6,155.9c-0.2,0.1 -0.3,0.3 -0.5,0.4c0.7,2.6 1.3,5.3 2.1,7.8c0.1,0.4 0.9,0.6 1.3,0.9c0.2,-0.4 0.6,-0.9 0.5,-1.3c-0.6,-2.3 -1.2,-4.6 -2,-6.9c-0.1,-0.4 -0.9,-0.6 -1.4,-0.9z"/>
   <path fill="#b9b9b9" id="svg_201" d="m176.9,162.5c0.2,-0.2 0.5,-0.4 0.7,-0.6c-1.3,-2.5 -2.5,-5.1 -4,-7.6c-0.2,-0.3 -0.9,-0.3 -1.3,-0.4c-0.1,0.5 -0.3,1 -0.2,1.4c1,2.1 2.1,4.3 3.3,6.3c0.4,0.5 1.1,0.6 1.5,0.9z"/>
   <path fill="#b9b9b9" id="svg_202" d="m37.9,165.2c1,-0.1 1.5,0 1.5,-0.1c0.9,-2.7 1.7,-5.5 2.5,-8.3c0.1,-0.2 -0.4,-0.7 -0.6,-0.7c-0.4,0 -1,0.2 -1,0.4c-0.8,2.7 -1.5,5.5 -2.4,8.7z"/>
   <path fill="#b9b9b9" id="svg_203" d="m170.7,149.5c0.3,-2.6 -2.6,-7 -4.4,-7.4c-0.3,-0.1 -0.8,0.1 -0.9,0.3c-0.1,0.3 -0.2,0.9 0,1.2c1.6,1.8 3.3,3.6 5.3,5.9z"/>
   <path fill="#b9b9b9" id="svg_204" d="m40.4,142.9c-0.1,-0.2 -0.2,-0.4 -0.3,-0.6c-0.6,0.1 -1.4,0.1 -1.7,0.4c-1.6,1.8 -4.9,2.7 -3.7,6.7c2,-2.4 3.9,-4.4 5.7,-6.5z"/>
   <path fill="#b9b9b9" id="svg_205" d="m88.5,302c0.6,-2.8 -2.2,-5.8 -5.5,-5.7c1.8,1.8 3.5,3.6 5.5,5.7z"/>
   <path fill="#b9b9b9" id="svg_206" d="m116.5,301.4c2.9,-1.3 4.9,-3.5 5.1,-5.8c-3.4,1.4 -5.4,3.5 -5.1,5.8z"/>
   <path fill="#b9b9b9" id="svg_207" d="m112.4,26c0.4,0 0.8,0 1.2,-0.1c0.1,-1.8 0.2,-3.7 0.2,-5.5c0,-0.4 -0.8,-0.7 -1.2,-1.1c-0.3,0.4 -1,0.9 -1,1.3c0.2,1.8 0.5,3.6 0.8,5.4z"/>
   <path fill="#b9b9b9" id="svg_208" d="m91.7,26l1.3,0c0.2,-1.8 0.5,-3.5 0.6,-5.4c0,-0.4 -0.6,-0.9 -0.9,-1.3c-0.4,0.4 -1.1,0.8 -1.1,1.2c-0.1,1.9 0,3.7 0.1,5.5z"/>
   <path fill="#b9b9b9" id="svg_209" d="m44.9,155.1c-0.6,3 -1,5.5 -1.5,8c0.2,0 0.5,0.1 0.7,0.1c1.7,-2.3 2.3,-6.5 0.8,-8.1z"/>
   <path fill="#b9b9b9" id="svg_210" d="m160.6,163.5c0.3,-0.1 0.6,-0.1 0.9,-0.2c0.3,-2.7 -0.7,-6.7 -2.7,-7.9c0.7,3 1.3,5.5 1.8,8.1z"/>
   <path fill="#b9b9b9" id="svg_211" d="m104.5,0.7c-0.3,0.4 -0.5,0.9 -0.8,1.3c2.4,1 4.9,1.9 7.3,2.9c0.1,-0.3 0.3,-0.5 0.4,-0.8c-2.3,-1 -4.6,-2.2 -6.9,-3.4z"/>
   <path fill="#b9b9b9" id="svg_212" d="m94.1,5.2c2.5,-1 5,-2 7.9,-3.2c-3.2,-1.1 -5.8,0.1 -7.9,3.2z"/>
   <path fill="#b9b9b9" id="svg_213" d="m110.7,298.6c0.3,-0.2 0.7,-0.3 1,-0.5c-0.8,-1.7 -1.5,-3.4 -2.3,-5.2c-0.4,0.2 -0.7,0.3 -1.1,0.5c-1.5,2.7 2.2,3.2 2.4,5.2z"/>
   <path fill="#b9b9b9" id="svg_214" d="m93.7,298.1c0.2,0.1 0.5,0.2 0.7,0.3c3.4,-3.9 3.4,-3.9 1.4,-5.4c-0.8,1.8 -1.5,3.4 -2.1,5.1z"/>
   <path fill="#b9b9b9" id="svg_215" d="m37.2,149.6l0.7,2l3.3,-5.9l-4,3.9z"/>
   <path fill="#b9b9b9" id="svg_216" d="m40.4,151.9l1.6,0l0.9,-5.5l-2.5,5.5z"/>
   <path fill="#b9b9b9" id="svg_217" d="m44.1,151.9l1.6,0l0.5,-6l-2.1,6z"/>
   <path fill="#b9b9b9" id="svg_218" d="m159.1,146.4l0.7,5.5l1.5,0l-2.2,-5.5z"/>
   <path fill="#b9b9b9" id="svg_219" d="m162.6,146.3l1.1,5.6l1.4,0l0,-1.3l-2.5,-4.3z"/>
   <path fill="#b9b9b9" id="svg_220" d="m165.1,145.2l2.4,6.4l0.9,-1.5l-3.3,-4.9z"/>
   <path fill="#b9b9b9" id="svg_221" d="m91.8,301.2c-0.7,0 -1.3,-0.6 -1.3,-1.3s0.6,-1.3 1.3,-1.3s1.3,0.6 1.3,1.3s-0.6,1.3 -1.3,1.3z"/>
   <path fill="#b9b9b9" id="svg_222" d="m113.8,301.2c-0.7,0 -1.3,-0.6 -1.3,-1.3s0.6,-1.3 1.3,-1.3s1.3,0.6 1.3,1.3s-0.6,1.3 -1.3,1.3z"/>
  </g>
 </g>
</svg>