<svg width="200" height="304" xmlns="http://www.w3.org/2000/svg">
 <g>
  <title>background</title>
  <rect x="-1" y="-1" width="202" height="306" id="canvas_background" fill="none"/>
 </g>

 <g>
  <title>Layer 1</title>
  <path d="m88.2,208.4c0.4,-8.8 0.7,-17.4 1.1,-26.1c0.2,-4.1 1.7,-8.1 0,-12.2c-3.3,-7.7 -6.8,-15.4 -10.3,-23.5c-1.3,8.5 -2.5,16.5 -0.5,24.8c2.2,9.1 3.9,18.3 5.8,27.5c0.6,3.1 1,6.4 1.5,9.4l2.4,0l0,0.1z" fill="#b9b9b9" id="svg_1"/>
  <path d="m128,70.4c-2.3,-1.6 -4.4,-2.9 -6.3,-4.4c-1.9,-1.4 -3.8,-3 -5.8,-4.3c-3,-1.9 -6.1,-3.8 -9.2,-5.3c-1.2,-0.6 -3.2,-0.8 -4.2,-0.1c-0.9,0.7 -1.2,2.6 -1.2,4.1c0,3.9 0.3,7.7 0.5,11.6c0,0.3 -0.2,0.7 -0.3,1c-0.9,3.4 -0.1,5.1 3.5,5.7c9.1,1.3 15.9,-3.4 23,-8.3z" fill="#b9b9b9" id="svg_2"/>
  <path d="m112.6,208.4c2,-10.3 3.7,-20.7 6.1,-30.7c1.6,-6.9 3.2,-13.7 2.4,-20.9c-0.4,-3.3 -0.9,-6.7 -1.3,-10c-0.9,1.2 -1.2,2.3 -1.7,3.3c-2.6,6.1 -5.4,12.1 -7.9,18.2c-1.3,3.1 -1.7,6.3 -1.4,9.8c0.8,8.1 1.2,16.2 1.6,24.3c0.1,2 -0.3,4 -0.4,6.1c1.2,-0.1 2,-0.1 2.6,-0.1z" fill="#b9b9b9" id="svg_3"/>
  <path d="m71.1,70.3c5.1,4.4 10.4,7.1 16.6,8.3c2,0.4 4.3,0.3 6.3,0c3.4,-0.6 4.4,-2.1 3.5,-5.5c-0.1,-0.6 -0.3,-1.2 -0.3,-1.8c0.1,-4.3 0.4,-8.5 0.4,-12.7c0,-2.3 -1.8,-3.4 -4.1,-2.6c-2,0.8 -4.1,1.6 -5.8,2.7c-5.5,3.6 -10.9,7.5 -16.6,11.6z" fill="#b9b9b9" id="svg_4"/>
  <path d="m97.5,130.8c0.1,-2.7 0.1,-5.6 0.1,-8.3c0,-5.7 -2.5,-8.2 -8.2,-8.4c-1.7,-0.1 -2.7,0.4 -2.5,2.4c0.2,2.4 0,5.1 0.6,7.4c1.4,5.9 3,11.7 4.9,17.3c0.3,1 2.1,1.5 3.2,2.2c0.6,-1.1 1.6,-2.1 1.7,-3.3c0.3,-2.9 0.2,-6 0.2,-9.3z" fill="#b9b9b9" id="svg_5"/>
  <path d="m68.2,71.3c-1.7,0.7 -3.3,1.3 -5,2c-0.6,0.3 -1.3,0.7 -1.5,1.3c-1.5,5.9 -3.1,11.9 -4.3,17.8c-0.3,1.4 0.8,4 2,4.7c2,1.2 3.8,-0.5 5.2,-2.1c0.3,-0.3 0.5,-0.7 0.7,-1.1c3.3,-4.7 4.6,-10.1 5.7,-15.7c0.7,-3 0.8,-5.7 -2.8,-6.9z" fill="#f0222c" id="svg_6"/>
  <path d="m130.1,70.8c-1,1.5 -2.8,2.9 -2.6,4.1c0.6,5.9 1.6,11.7 4.7,16.8c1.1,1.8 2.4,3.7 4,5c2.1,1.8 4.6,0.8 5.1,-2c0.2,-1.1 0.4,-2.3 0.2,-3.4c-0.7,-4 -1.7,-7.8 -2.5,-11.8c-0.8,-3.8 -2.2,-6.9 -6.6,-7.5c-0.8,-0.1 -1.3,-0.6 -2.3,-1.2z" fill="#f0222c" id="svg_7"/>
  <path d="m100.7,130.6c0.2,0 0.5,0 0.7,0.1c0,3.1 -0.1,6.3 0.1,9.4c0.1,1.2 0.9,2.3 1.5,3.4c1.1,-0.7 2.3,-1.3 3.4,-2c0.4,-0.3 0.6,-0.9 0.8,-1.4c3,-7.6 4.5,-15.6 4.9,-23.7c0,-0.6 -0.2,-1.5 -0.6,-1.8c-1.6,-1.3 -8.5,0.6 -8.8,2.7c-0.9,4.3 -1.4,8.8 -2,13.3z" fill="#b9b9b9" id="svg_8"/>
  <path d="m104.6,284.9c0.3,0.2 0.6,0.4 0.8,0.6c0.4,-0.8 1,-1.6 1.2,-2.4c2.7,-11.7 5.6,-23.2 8.1,-34.9c1.4,-6.5 2.6,-13.1 3.7,-19.7c0.2,-1.3 -0.7,-4 -1.6,-4.3c-2.2,-0.6 -2.6,1.8 -3.4,3.3c-0.5,0.9 -0.8,2 -1,3c-0.8,5.3 -1.8,10.5 -2.3,15.8c-0.7,8 -0.8,16 -1.8,24c-0.6,5.2 -2.5,10 -3.7,14.6z" fill="#b9b9b9" id="svg_9"/>
  <path d="m93.6,285.4c0.3,-0.2 0.5,-0.4 0.8,-0.7c-2.9,-9.2 -5.3,-18.5 -5.4,-28.2c-0.1,-6.3 -0.4,-12.5 -1.1,-18.7c-0.5,-4 -1.8,-7.8 -3.1,-11.6c-0.3,-1 -1.8,-1.5 -2.8,-2.3c-0.5,1 -1.3,2 -1.4,3.1c-0.1,2.1 -0.1,4.4 0.3,6.4c1.6,7.5 3.3,14.9 5.1,22.4c2.1,9.2 4.3,18.4 6.4,27.6c0.1,0.9 0.7,1.5 1.2,2z" fill="#b9b9b9" id="svg_10"/>
  <path d="m85.5,131.3c-0.6,-7.4 -1,-14 -1.9,-20.5c-0.3,-1.7 -2.2,-3.5 -3.8,-4.8c-1.9,-1.5 -3,-0.8 -3.1,1.7c-0.2,4.1 0,8.1 -0.8,12c-1.2,6.2 2.9,9.9 7.8,12.2c0.4,0.1 1.5,-0.6 1.8,-0.6z" fill="#b9b9b9" id="svg_11"/>
  <path d="m122.3,119.9c0,-4.1 0.1,-8.2 0,-12.3c0,-2.1 -1,-2.8 -2.9,-1.9c-2.3,1.1 -4.2,2.9 -4.5,5.7c-0.7,6.2 -1.1,12.5 -1.7,18.7c-0.2,2.1 0.8,2.6 2.5,1.7c5.6,-3.3 8.2,-6.1 6.6,-11.9z" fill="#b9b9b9" id="svg_12"/>
  <path d="m79.3,198.9c-0.8,-5.4 -1.7,-10.7 -2.3,-16.1c-1.1,-9.8 -1.5,-19.6 -0.5,-29.5c0.6,-6.5 1.2,-13 1.7,-19.5c0.1,-1 -0.5,-2.1 -0.7,-3.2c-0.3,0.1 -0.6,0.1 -0.9,0.2c-5.7,23 -4.3,45.6 2.7,68.1z" fill="#b9b9b9" id="svg_13"/>
  <path d="m119.5,199.8c7.1,-22.8 8.4,-45.8 2.4,-69.2c-0.6,0.6 -1.1,1.3 -1.1,2c0,1.7 0.1,3.3 0.2,5.1c0.6,7.7 1.5,15.3 1.8,23c0.6,13.2 -0.8,26.3 -3.3,39.1z" fill="#b9b9b9" id="svg_14"/>
  <path d="m92,177.8c-0.3,3.4 -0.8,7 -1,10.4c-0.3,6.2 -0.4,12.5 -0.4,18.7c0,1.8 0.1,4.3 2.6,4.3c2.5,0.1 2.8,-2.4 3.2,-4.3c1.8,-10.2 -0.5,-19.8 -4.4,-29.1z" fill="#b9b9b9" id="svg_15"/>
  <path d="m107.4,177.5c-0.3,0 -0.6,0 -1,0c-3.3,9 -5.5,18.4 -4.1,28.1c0.2,1.5 0.7,3.1 1.5,4.5c1.1,1.8 3,1.5 4,-0.4c0.3,-0.7 0.6,-1.5 0.6,-2.3c-0.3,-10 -0.7,-19.9 -1,-29.9z" fill="#b9b9b9" id="svg_16"/>
  <path d="m54.2,97.8c-3.5,3.3 -5.8,7.8 -7.6,15.5c-1.9,8.5 -3.7,17 -9.2,24.3c0.7,-0.2 1.3,-0.5 1.6,-1c4,-6.2 7.7,-12.5 11.7,-18.6c4.1,-6.2 5.5,-12.7 3.5,-20.2z" fill="#b9b9b9" id="svg_17"/>
  <path d="m160.9,137.8c0.2,-0.1 0.4,-0.3 0.6,-0.4c-4.8,-6.2 -6.9,-13.4 -8.6,-20.8c-1.1,-4.7 -2.7,-9.2 -4.5,-13.7c-0.7,-1.8 -2.2,-3.4 -3.7,-5.4c-2.2,8.1 -0.5,14.8 3.7,21.2c4,5.9 7.5,12 11.3,17.8c0.3,0.6 0.8,0.9 1.2,1.3z" fill="#b9b9b9" id="svg_18"/>
  <path d="m61.4,71.4c7.5,-0.2 13.7,-7.6 17.1,-18.7c-2,-0.7 -3.8,-0.5 -5.4,0.9c-5.8,4.6 -9.3,10.8 -11.7,17.8z" fill="#b9b9b9" id="svg_19"/>
  <path d="m120.8,51.670115c2.8,11.4 9.3,19.6 16.7,19.5c-2.4,-6.9 -5.8,-13.1 -11.6,-17.5c-1.4,-1.2 -3.4,-1.3 -5.1,-2z" fill="#b9b9b9" id="svg_20"/>
  <path d="m96.6,182.7c-3,-16.9 -10.6,-32.3 -17,-48.6c-0.6,5.1 0.3,9.5 2,13.7c4.9,11.8 10,23.4 15,34.9z" fill="#b9b9b9" id="svg_21"/>
  <path d="m102.8,182.3c1.2,-3.1 2.3,-6.3 3.7,-9.4c3.5,-8.2 7.2,-16.3 10.6,-24.5c2.2,-5.4 2.8,-10.2 2.1,-13.8c-6.3,15.8 -13.8,30.9 -16.4,47.7z" fill="#b9b9b9" id="svg_22"/>
  <path d="m97.6,108.4c0,-5.9 -1,-6.8 -6.7,-6.3c-3.8,0.4 -6.5,5.1 -4.7,8.5c0.3,0.6 1.3,0.9 2.1,1.1c1.4,0.3 2.8,0.2 4.3,0.5c5,1.4 5,1.6 5,-3.8z" fill="#b9b9b9" id="svg_23"/>
  <path d="m101.3,113.4c3.8,-0.5 7.1,-1 10.4,-1.6c0.4,-0.1 0.8,-0.9 0.9,-1.4c0.8,-2.6 -0.1,-5.6 -2,-7c-1.7,-1.3 -6.8,-1.5 -8.4,-0.3c-0.4,0.3 -0.9,1 -0.9,1.5l0,8.8z" fill="#b9b9b9" id="svg_24"/>
  <path d="m97.6,99.8c0,-1.7 0,-3.4 0,-5.1c0,-4.5 -1.7,-5.7 -5.9,-4.1c-1.3,0.5 -2.5,1.3 -3.7,2.2c-2.5,2.3 -3,6 -1.5,7.8c3.8,-0.3 7.2,-0.5 11.1,-0.8z" fill="#b9b9b9" id="svg_25"/>
  <path d="m112.5,100.7c1,-2.4 0.6,-4.9 -1.2,-7.1c-2,-2.4 -4.8,-3.8 -8,-3.3c-0.7,0.1 -1.8,0.9 -1.9,1.4c-0.2,2.7 -0.1,5.6 -0.1,8.1c3.9,0.3 7.4,0.5 11.2,0.9z" fill="#b9b9b9" id="svg_26"/>
  <path d="m79.3,238.3c-0.3,0 -0.5,0 -0.8,0c0.2,3.1 0,6.5 0.7,9.5c2.6,11.4 5.7,22.6 8.5,33.9c0.3,1.4 0.7,2.7 1.1,4.7c1.2,-2.2 -7.8,-45.6 -9.5,-48.1z" fill="#b9b9b9" id="svg_27"/>
  <path d="m40,141.7c-1.9,1.6 -3.4,3.2 -5.3,4.6c-1.7,1.2 -3.8,2.1 -5.5,3.3c-2.1,1.5 -2.1,2.9 0.3,3.9c2.6,1 5.5,1.5 8.3,1.8c3,0.4 3.7,-0.4 2.7,-3.4c-0.2,-0.7 -0.5,-1.4 -0.5,-2c0,-2.9 0,-5.5 0,-8.2z" fill="#b9b9b9" id="svg_28"/>
  <path d="m119.9,238.3c-0.2,0 -0.4,0 -0.6,-0.1c-0.3,0.5 -0.6,1 -0.7,1.6c-3.2,15 -6.4,30 -9.5,45c-0.1,0.3 0.5,0.8 1,1.5c1,-4.6 1.9,-8.6 2.9,-12.6c2.3,-9 4.8,-18 6.9,-27.2c0.6,-2.4 0,-5.3 0,-8.2z" fill="#b9b9b9" id="svg_29"/>
  <path d="m159.5,142.8c-0.5,2.9 -1,6.8 -1.6,10.5c-0.3,1.8 1,2 2.1,1.9c2.7,-0.3 5.5,-0.7 8.1,-1.4c1.1,-0.3 2,-1.5 3,-2.2c-0.9,-0.9 -1.6,-2 -2.6,-2.7c-3.1,-2.4 -6.4,-4.4 -9,-6.1z" fill="#b9b9b9" id="svg_30"/>
  <path d="m126.1,67.3c-1.9,-3.2 -3.7,-6.2 -5.3,-9.2s-4.2,-4.9 -7.4,-5.8c-2.9,-0.8 -6.5,-0.2 -8.4,1.6c8.7,2.3 14.2,8.5 21.1,13.4z" fill="#b9b9b9" id="svg_31"/>
  <path d="m72.8,67.3c6.9,-5.1 12.7,-11.4 21.3,-13.5c-4.3,-3.3 -13.1,-1.8 -16.2,4.6c-1.6,2.9 -3.3,5.8 -5.1,8.9z" fill="#b9b9b9" id="svg_32"/>
  <path d="m58.570115,71.670115c3.4,-6.9 6.4,-14.1 13.1,-18.9c-4.7,-1.5 -9.1,0.5 -11.1,5c-1.9,4.3 -2.4,8.9 -2,13.9z" fill="#b9b9b9" id="svg_33"/>
  <path d="m86.2,90.7c3.5,-1.1 6.8,-2 10,-3.1c0.6,-0.2 1.2,-1 1.3,-1.7c0.2,-1.2 0.2,-2.5 0,-3.8c-0.1,-0.6 -0.8,-1.4 -1.4,-1.5c-3.3,-0.5 -6.2,0.9 -8.4,3.1c-2,1.9 -2.4,4.4 -1.5,7z" fill="#b9b9b9" id="svg_34"/>
  <path d="m139.9,71.9c0.3,-5.7 0.2,-11.5 -3.4,-16.4c-2.1,-2.7 -6.2,-3.8 -9.4,-2.3c6.4,4.5 9.5,11.6 12.8,18.7z" fill="#b9b9b9" id="svg_35"/>
  <path d="m112.5,90.7c1.3,-4.7 -1,-8.4 -6.2,-9.8c-4.2,-1.1 -5.2,-0.4 -5,3.9c0,1 0.5,2.5 1.2,2.8c3.2,1 6.6,2 10,3.1z" fill="#b9b9b9" id="svg_36"/>
  <path d="m121.1,175.1c-3.4,10.7 -5.2,22 -6.6,33.2c-0.1,0.6 0.6,1.3 1.1,2.5c3.9,-12.1 4.6,-23.8 5.5,-35.7z" fill="#b9b9b9" id="svg_37"/>
  <path d="m83.6,209.9c0,-11.8 -2.5,-23.1 -5.7,-34.4c0.7,11.6 1.5,23.2 5.7,34.4z" fill="#b9b9b9" id="svg_38"/>
  <path d="m103.8,170c0.9,-3 1.9,-6.1 2.7,-9.1c0.3,-1 0.1,-2.3 -0.3,-3.3c-1.5,-3 -3.2,-6 -4.8,-8.9c-1.4,4.4 -0.1,17.1 2.4,21.3z" fill="#b9b9b9" id="svg_39"/>
  <path d="m95.2,170.8c2.6,-7.7 3.1,-15 2.3,-22.4c-1.5,2.8 -3,5.6 -4.5,8.4c-0.5,1 -1.2,2.2 -1,3.1c0.9,3.4 2,6.8 3.2,10.9z" fill="#b9b9b9" id="svg_40"/>
  <path d="m89.8,142.7c-3.5,5.2 -2.2,9.6 1.5,13.9c5.8,-8.9 5.6,-9.9 -1.5,-13.9z" fill="#b9b9b9" id="svg_41"/>
  <path d="m108.8,142.3c-1.7,1.5 -3.4,3 -5.1,4.7c-0.3,0.3 -0.5,1.2 -0.4,1.6c1.1,2.7 2.4,5.5 3.9,8.5c3.9,-5 5.5,-9.4 1.6,-14.8z" fill="#b9b9b9" id="svg_42"/>
  <g fill="#b9b9b9" id="svg_43">
   <path d="m100.7,53.5c3.9,-6.3 8.1,-12.4 8.1,-20.5c-4.8,6.2 -8.7,12.4 -8.1,20.5z" id="svg_44" fill="#b9b9b9"/>
   <path d="m90.1,33.2c-0.1,8.2 4.3,14.2 7.8,20.6c1.6,-5.2 -1.6,-12.9 -7.8,-20.6z" id="svg_45" fill="#b9b9b9"/>
   <path d="m101.8,209.6c0,3 -0.5,5.9 0.1,8.3c1.6,6 3.8,11.8 5.7,17.6c1.4,-4.8 0.4,-9.1 -1.6,-13.5c-1.9,-3.7 -2.8,-7.8 -4.2,-12.4z" id="svg_46" fill="#b9b9b9"/>
   <path d="m96.9,210.8c-1.5,4.4 -2.9,9 -4.9,13.4c-1.7,4 -1.7,7.7 -0.8,11.4c0.8,-2.4 1.2,-5.4 2.6,-7.8c3.4,-5.5 3.7,-11.3 3.1,-17z" id="svg_47" fill="#b9b9b9"/>
   <path d="m98.7,8c0,-1.9 0.1,-4.3 -0.1,-6.5c-0.1,-0.6 -1.3,-1.5 -2,-1.5c-5,0.1 -6.6,2.8 -5,7.4c2.5,0.3 4.8,0.4 7.1,0.6z" id="svg_48" fill="#b9b9b9"/>
   <path d="m107.7,7.5c0.2,-0.8 0.8,-2.2 0.5,-3.3s-1.3,-2.5 -2.4,-2.9c-1.5,-0.7 -3.3,-0.6 -5.1,-0.9c-0.1,0 -0.3,0.4 -0.3,0.7c-0.2,2.5 -0.4,5.1 -0.5,7.1c2.7,-0.4 5.1,-0.5 7.8,-0.7z" id="svg_49" fill="#b9b9b9"/>
   <path d="m104.4,230.7c-1.5,6.9 -2.8,13.7 -0.8,20.7c3.3,-6.8 2.1,-13.7 0.8,-20.7z" id="svg_50" fill="#b9b9b9"/>
   <path d="m125.4,88.6c-2.4,3.2 -5,6.2 -7.1,9.4c-1.1,1.7 -1.4,4 -0.2,6c4.5,-2.2 7.3,-8.3 7.3,-15.4z" id="svg_51" fill="#b9b9b9"/>
   <path d="m95.3,251.4c2.2,-7 0.5,-13.7 -0.9,-20.5c-1,6.9 -2.6,13.8 0.9,20.5z" id="svg_52" fill="#b9b9b9"/>
   <path d="m73.4,88.6c0.4,6.4 1.7,11.9 7.2,15.8c1.4,-2.5 0.9,-4.8 -0.5,-6.7c-2,-3 -4.3,-5.9 -6.7,-9.1z" id="svg_53" fill="#b9b9b9"/>
  </g>
  <path d="m58.6,114c-9.6,5.4 -11.4,16.1 -17,24.1c5.6,-8 11.3,-16.1 17,-24.1z" fill="#b9b9b9" id="svg_54"/>
  <path d="m157.3,137.9c-5.7,-7.8 -7.3,-18.5 -16.7,-23.6c5.5,7.9 11.1,15.9 16.7,23.6z" fill="#b9b9b9" id="svg_55"/>
  <path d="m107,250.8c-0.4,-0.1 -0.8,-0.1 -1.2,-0.2c-3.9,8.5 0.8,17.4 -1.3,26.1c0.3,0 0.7,0 1,0.1c0.5,-8.8 1,-17.4 1.5,-26z" fill="#b9b9b9" id="svg_56"/>
  <path d="m65.6,103.7c-5,1.9 -9.9,6.7 -10.5,10c2.5,-1.3 5.1,-2.7 7.7,-4.1c2.7,-1.3 3.4,-2.7 2.8,-5.9z" fill="#b9b9b9" id="svg_57"/>
  <path d="m93.1,274.8l0.6,0c0.2,-4.1 0.5,-8.1 0.7,-12.3c0.4,-8 0.2,-9.5 -2.3,-11.8c0.3,8.2 0.7,16.2 1,24.1z" fill="#b9b9b9" id="svg_58"/>
  <path d="m119.6,206.7c-0.2,0 -0.3,-0.1 -0.5,-0.1c-1.7,5.3 -3.4,10.6 -5.3,16.3c1.7,-1.2 2.9,-2 4.1,-2.9c0.7,-0.6 1.5,-1.4 1.6,-2.1c0.2,-3.7 0.1,-7.5 0.1,-11.2z" fill="#b9b9b9" id="svg_59"/>
  <path d="m144.4,114c-2.6,-5.1 -6.5,-8 -11.3,-10.6c-0.3,2.5 -0.1,4.6 1.8,5.7c3,1.6 6,3.2 9.5,4.9z" fill="#b9b9b9" id="svg_60"/>
  <path d="m84.9,222.6c-1.5,-4.9 -2.9,-9.4 -4.4,-13.9c-0.2,-0.6 -0.5,-1.1 -1,-2.2l0,12.7c1.8,1.1 3.3,2.2 5.4,3.4z" fill="#b9b9b9" id="svg_61"/>
  <path d="m111.5,211.4c-2.2,0 -3.8,1.2 -3.8,2.8s1.8,3.8 3.5,3.9c1.4,0.1 3.5,-2.2 3.5,-3.9c0,-2.1 -1.8,-2.5 -3.2,-2.8z" fill="#b9b9b9" id="svg_62"/>
  <path d="m84.1,215.4c0.8,0.7 1.9,2.1 3.3,2.6s3.9,-2.2 3.7,-3.9c-0.2,-2.1 -1.8,-2.8 -3.5,-2.7c-1.8,0 -3.3,0.8 -3.5,4z" fill="#b9b9b9" id="svg_63"/>
  <path d="m27.2,144.8c5.8,1.4 9.9,-0.3 11.1,-4.4c-4.3,-0.7 -7.7,1.1 -11.1,4.4z" fill="#b9b9b9" id="svg_64"/>
  <path d="m160.5,140.4c1.8,4.4 6.4,6.1 11,4.2c-3.1,-3.1 -6.5,-4.8 -11,-4.2z" fill="#b9b9b9" id="svg_65"/>
  <path d="m148.4,134.7c-4.3,-7.8 -8.4,-15.7 -12.7,-23.5c1.8,9.2 7.5,16.1 12.7,23.5z" fill="#b9b9b9" id="svg_66"/>
  <path d="m95.4,37.4c1.3,1.9 2.7,3.9 4.1,5.8c1.3,-1.8 2.6,-3.8 4,-5.7c-2.2,-1.8 -5.6,-2 -8.1,-0.1z" fill="#b9b9b9" id="svg_67"/>
  <path d="m63.5,111.8c-0.2,-0.1 -0.4,-0.2 -0.6,-0.3c-4,7.4 -7.9,14.8 -11.9,22.3c5,-7 10.3,-13.6 12.5,-22z" fill="#b9b9b9" id="svg_68"/>
  <path d="m109.2,42c0.8,4.4 5.9,8.5 11.9,6.4c-4,-2.3 -7.8,-4.3 -11.9,-6.4z" fill="#b9b9b9" id="svg_69"/>
  <path d="m77.7,48.5c6.4,2 11.6,-2.7 11.9,-6.4c-4.1,2 -7.9,4.2 -11.9,6.4z" fill="#b9b9b9" id="svg_70"/>
  <path d="m153.9,140.4c0.2,-0.1 0.4,-0.2 0.5,-0.3c-3.5,-7.6 -7.4,-15.1 -13.3,-21.3c4.3,7.1 8.6,14.3 12.8,21.6z" fill="#b9b9b9" id="svg_71"/>
  <path d="m44,139.8c0.3,0.2 0.6,0.3 0.9,0.5c4.3,-7.2 8.4,-14.3 12.7,-21.5c-0.4,-0.2 -0.7,-0.4 -1.1,-0.6c-4.1,7.2 -8.2,14.4 -12.5,21.6z" fill="#b9b9b9" id="svg_72"/>
  <g fill="#b9b9b9" id="svg_73">
   <path d="m76,87.2c-0.1,2.9 2.6,6.7 5.7,7.8c1,-4.2 -0.7,-6.6 -5.7,-7.8z" id="svg_74" fill="#b9b9b9"/>
   <path d="m117.6,96.1c2.2,-3 4.2,-5.7 6.4,-8.7c-5.6,0.2 -8.4,4.3 -6.4,8.7z" id="svg_75" fill="#b9b9b9"/>
   <path d="m59.8,74.9c-4.9,3.9 -6.3,22.2 -1.8,26.8c-3.6,-9.4 -1.8,-18.1 1.8,-26.8z" id="svg_76" fill="#f0222c"/>
   <path d="m139.1,75c3.5,8.6 5.4,17.2 1.7,26.9c4.4,-4.8 3,-22.9 -1.7,-26.9z" id="svg_77" fill="#f0222c"/>
   <path d="m91.2,297.4c0.2,0.2 0.5,0.4 0.7,0.7c0.6,-0.6 1.7,-1 1.8,-1.7c0.4,-2.6 0.6,-5.3 0.8,-7.9c0,-0.5 -0.6,-1 -1,-1.5c-0.4,0.4 -1.1,0.8 -1.2,1.3c-0.4,3 -0.7,6.1 -1.1,9.1z" id="svg_78" fill="#b9b9b9"/>
   <path d="m106.9,298.1c0.2,-0.2 0.5,-0.5 0.7,-0.7c-0.3,-3 -0.6,-6 -1,-9c-0.1,-0.5 -0.8,-0.9 -1.2,-1.4c-0.4,0.6 -1.1,1.2 -1,1.7c0.2,2.5 0.5,5.2 0.9,7.6c0,0.7 1,1.2 1.6,1.8z" id="svg_79" fill="#b9b9b9"/>
   <path d="m93.8,26.6c2.3,3.4 9.5,3.3 11.3,0c-3.8,0 -7.5,0 -11.3,0z" id="svg_80" fill="#b9b9b9"/>
   <path d="m108.1,14.3c0.1,-3.3 -1,-5.4 -2.9,-5.7c-2.1,-0.4 -4,1.2 -4.7,4.6c2.8,-1.8 5.2,-1.3 7.6,1.1z" id="svg_81" fill="#b9b9b9"/>
   <path d="m116.7,88.1c0.3,0.1 0.6,0.3 0.9,0.4c1.4,-2.7 2.8,-5.6 4.4,-8.3c-0.2,-0.1 -0.5,-0.2 -0.7,-0.4c-5.5,3.8 -5.8,4.3 -4.6,8.3z" id="svg_82" fill="#b9b9b9"/>
   <path d="m98.1,13.1c-0.5,-3.1 -2.2,-4.7 -4.4,-4.4c-2,0.3 -3.1,2.1 -2.9,5.3c2.2,-1.7 4.5,-2.6 7.3,-0.9z" id="svg_83" fill="#b9b9b9"/>
   <path d="m77.1,79.4c0.8,3.8 2,6.7 4.8,9c1.5,-3.9 1,-4.8 -4.8,-9z" id="svg_84" fill="#b9b9b9"/>
   <path d="m167.1,155.5c-0.2,0.3 -0.4,0.6 -0.6,0.9c1.1,2.5 2.1,5.1 3.3,7.5c0.3,0.6 1.1,0.9 1.6,1.4c0.1,-0.8 0.4,-1.6 0.2,-2.3c-0.8,-2.1 -1.8,-4.3 -2.8,-6.3c-0.3,-0.5 -1.2,-0.7 -1.7,-1.2z" id="svg_85" fill="#b9b9b9"/>
   <path d="m31.4,155.3c-0.3,0 -0.5,0.1 -0.8,0.1c-1.2,2.6 -2.4,5.3 -3.5,8c-0.2,0.5 0.2,1.2 0.3,1.8c0.5,-0.4 1.2,-0.6 1.5,-1.1c1.1,-2.2 2.1,-4.5 3,-6.8c0.2,-0.4 -0.3,-1.2 -0.5,-2z" id="svg_86" fill="#b9b9b9"/>
  </g>
  <path d="m171.4,147.9c1.5,1 2.9,1.9 4.5,2.6c0.5,0.2 1.2,-0.2 1.9,-0.3c-0.1,-0.6 -0.1,-1.5 -0.4,-1.8c-0.7,-0.7 -1.7,-1.2 -2.6,-1.9c-1.8,-1.3 -2.8,-1 -3.4,1.4z" fill="#b9b9b9" id="svg_87"/>
  <path d="m100.9,14.3c0.7,2.2 3.7,4.1 5.9,3.3c0.8,-0.2 1.2,-1.5 2.1,-2.7c-3.3,-0.3 -5.5,-0.5 -8,-0.6z" fill="#b9b9b9" id="svg_88"/>
  <path d="m93.8,24.9l11.5,0c-2.7,-2.7 -9.2,-2.7 -11.5,0z" fill="#b9b9b9" id="svg_89"/>
  <path d="m57.7,103.8c4.7,-1.7 7.7,-4.9 9.2,-9.3c0.3,0.3 0.6,0.7 0.9,1c-3.3,2.9 -6.7,5.7 -10.1,8.3z" fill="#f0222c" id="svg_90"/>
  <path d="m98.1,14.3c-2.5,0.2 -4.9,0.4 -7.8,0.6c0.5,1 0.6,2.2 1.3,2.5c1.9,1.1 5.5,-0.8 6.5,-3.1z" fill="#b9b9b9" id="svg_91"/>
  <path d="m140.7,104.3l0.8,-0.8c-3.7,-2.8 -7.4,-5.7 -11.1,-8.5l1,-1c1.7,4.7 4.8,8.2 9.3,10.3z" fill="#f0222c" id="svg_92"/>
  <path d="m28,154.8c-0.2,-0.3 -0.4,-0.7 -0.6,-0.8c-0.4,-0.1 -1,0 -1.2,0.2c-1.4,2.2 -2.7,4.6 -4.1,6.9c-0.1,0.2 0.1,0.8 0.4,1.1c0.1,0.1 0.8,0.1 0.9,-0.1c1.5,-2.4 3.1,-4.9 4.6,-7.3z" fill="#b9b9b9" id="svg_93"/>
  <path d="m165.4,165.7c0.4,-0.1 0.7,-0.2 1.1,-0.2c0.4,-3 -1.5,-5.7 -2.3,-8.5c-0.1,-0.3 -1,-0.4 -2.1,-0.7c1.1,3.4 2.2,6.4 3.3,9.4z" fill="#b9b9b9" id="svg_94"/>
  <path d="m175.7,162.6c0.4,-0.2 0.9,-0.5 1.3,-0.7c-1.1,-2.9 -2.8,-5.5 -4.7,-8c-0.1,-0.2 -1,0.3 -1.7,0.5c1.9,3 3.5,5.6 5.1,8.2z" fill="#b9b9b9" id="svg_95"/>
  <path d="m32.4,165.6c0.3,0.1 0.7,0.1 1,0.2c0.9,-2.8 1.9,-5.7 2.8,-8.5c0,-0.2 -0.6,-0.8 -0.8,-0.7c-0.4,0.2 -0.9,0.5 -1.1,0.9c-0.8,2.1 -1.5,4.2 -2.1,6.3c-0.1,0.5 0.1,1.2 0.2,1.8z" fill="#b9b9b9" id="svg_96"/>
  <path d="m156.3,150.8c0.4,-0.1 0.8,-0.1 1.3,-0.2c-0.1,-2.3 -0.2,-4.7 -0.5,-7c0,-0.4 -0.7,-0.8 -1,-1.2c-0.3,0.4 -1,0.9 -1,1.3c0.4,2.3 0.8,4.8 1.2,7.1z" fill="#b9b9b9" id="svg_97"/>
  <path d="m106.8,28.8c-3.9,0.2 -5,2.8 -6.4,5.7c3.6,-0.6 5,-2.9 6.4,-5.7z" fill="#b9b9b9" id="svg_98"/>
  <path d="m110,15.3c2.2,-4.2 2,-7.7 -0.2,-9.8c-1.8,3.2 0.6,6.1 0.2,9.8z" fill="#b9b9b9" id="svg_99"/>
  <path d="m110.7,297.9c-0.6,-3.5 -0.4,-7 -2.4,-9.7c0,2.9 0.3,5.9 0.8,8.7c0,0.4 1,0.7 1.6,1z" fill="#b9b9b9" id="svg_100"/>
  <path d="m126.4,145.4c0,-5.5 -0.3,-11 -1.9,-16.2c-0.3,0 -0.6,0.1 -0.9,0.1c0.9,5.5 1.8,10.8 2.8,16.1z" fill="#b9b9b9" id="svg_101"/>
  <path d="m41.7,142c-0.2,3.2 -0.3,5.9 -0.4,8.5c3,-3.8 3.2,-6.7 0.4,-8.5z" fill="#b9b9b9" id="svg_102"/>
  <path d="m113,139.3c-3,1.8 -3.1,4.1 -0.2,6.4c1.3,-2.2 2.2,-4.2 0.2,-6.4z" fill="#b9b9b9" id="svg_103"/>
  <path d="m89.1,5.3c-2.3,2.2 -2.4,4.7 -0.6,9.6c0.4,-3.3 1.9,-6.2 0.6,-9.6z" fill="#b9b9b9" id="svg_104"/>
  <path d="m87.6,297.8c2.2,-0.4 3.5,-5.5 3,-9.6c-0.2,-0.1 -0.5,-0.1 -0.7,-0.2c-0.7,3 -1.5,6.3 -2.3,9.8z" fill="#b9b9b9" id="svg_105"/>
  <path d="m98,34.4c-1.2,-4.2 -2.2,-5.1 -5.8,-5.5c1.2,2.8 2.6,5 5.8,5.5z" fill="#b9b9b9" id="svg_106"/>
  <path d="m85.7,139.3c-1.6,2.3 -1,4.4 0.6,6.5c2.6,-2.9 2.3,-5 -0.6,-6.5z" fill="#b9b9b9" id="svg_107"/>
  <path d="m110.4,21.9c-1.2,3.2 -2.2,6.2 -3.3,9.1c3.5,-2.3 5.3,-6.8 3.3,-9.1z" fill="#b9b9b9" id="svg_108"/>
  <path d="m72.1,144.3c0.2,0 0.4,0 0.6,0.1c0.8,-5 1.7,-9.8 2.5,-14.8c-0.4,-0.1 -0.8,-0.1 -1.2,-0.2c-0.7,4.9 -1.3,9.8 -1.9,14.9z" fill="#b9b9b9" id="svg_109"/>
  <g fill="#b9b9b9" id="svg_110">
   <path d="m91.7,30.9c-0.9,-2.8 -1.7,-5.2 -2.5,-7.5c-0.2,-0.5 -0.6,-0.9 -0.9,-1.3c-0.2,0.5 -0.7,1 -0.7,1.4c0.1,3 1.1,5.6 4.1,7.4z" id="svg_111" fill="#b9b9b9"/>
   <path d="m97.1,288c-0.3,0 -0.6,0 -0.9,0c-0.3,2.8 -0.6,5.6 -0.8,8.4c0,0.4 0.6,0.8 1,1.2c0.2,-0.4 0.7,-0.8 0.7,-1.2c0,-2.8 0,-5.5 0,-8.4z" id="svg_112" fill="#b9b9b9"/>
   <path d="m102.7,288c-0.3,0 -0.7,0 -1,0l0,8.6c0,0.3 0.6,0.7 1,0.9c0.1,0.1 0.8,-0.5 0.8,-0.7c-0.3,-2.8 -0.5,-5.8 -0.8,-8.8z" id="svg_113" fill="#b9b9b9"/>
   <path d="m77.8,85.5c-1.2,-2 -2.2,-3.7 -3.4,-5.7c-1.5,4.1 -0.7,5.4 3.4,5.7z" id="svg_114" fill="#b9b9b9"/>
   <path d="m121.2,85.5c4.1,-0.1 4.9,-1.7 3.1,-5.6c-1.1,1.9 -2,3.6 -3.1,5.6z" id="svg_115" fill="#b9b9b9"/>
   <path d="m106.6,24.9c1,-1.3 1.9,-2.3 2.5,-3.4c0.2,-0.4 0.2,-1.3 -0.1,-1.5c-0.3,-0.3 -1.4,-0.4 -1.5,-0.2c-1,1.4 -2.6,2.9 -0.9,5.1z" id="svg_116" fill="#b9b9b9"/>
   <path d="m37.3,163.8c0.4,0.1 0.8,0.2 1.3,0.3c0.7,-2.2 1.4,-4.4 2,-6.6c0.1,-0.2 -0.3,-0.8 -0.4,-0.8c-0.4,0 -0.9,0.2 -1,0.4c-0.7,2.1 -1.3,4.4 -1.9,6.7z" id="svg_117" fill="#b9b9b9"/>
   <path d="m160.3,164.1c0.3,-0.1 0.5,-0.1 0.8,-0.2c0.5,-2.4 -0.9,-6.5 -3.1,-7.6c0.8,2.9 1.6,5.3 2.3,7.8z" id="svg_118" fill="#b9b9b9"/>
   <path d="m88.5,225.6c0.8,-2.5 1.3,-4.4 1.8,-6.2c-1.3,0.4 -2.3,0.7 -3.5,1c0.6,1.6 1,3 1.7,5.2z" id="svg_119" fill="#b9b9b9"/>
   <path d="m92.2,24.9c2,-1.8 0.3,-3.2 -0.3,-4.6c-0.2,-0.3 -1.1,-0.3 -1.7,-0.5c-0.1,0.6 -0.5,1.3 -0.3,1.7c0.5,1.2 1.4,2.2 2.3,3.4z" id="svg_120" fill="#b9b9b9"/>
   <path d="m109.4,49.1c-0.7,-1.8 -1.1,-3 -1.7,-4.6c-0.8,1.7 -1.4,3.2 -2.3,5.3c1.6,-0.3 2.7,-0.6 4,-0.7z" id="svg_121" fill="#b9b9b9"/>
   <path d="m110.3,225.6c0.6,-1.9 1.1,-3.5 1.6,-5.3c-1.2,-0.3 -2.3,-0.6 -3.4,-0.9c0.6,2.1 1.2,4 1.8,6.2z" id="svg_122" fill="#b9b9b9"/>
   <path d="m94.1,22.4c2.4,-0.7 2.1,-2.3 1.6,-4.3c-1,0.3 -2,0.6 -3.1,0.9c0.5,1.4 0.9,2.4 1.5,3.4z" id="svg_123" fill="#b9b9b9"/>
   <path d="m93.8,49.9c-1,-2.1 -1.8,-3.5 -2.7,-5.3c-0.6,1.7 -1,2.9 -1.5,4.5c1.1,0.1 2.3,0.4 4.2,0.8z" id="svg_124" fill="#b9b9b9"/>
   <path d="m106.5,19.2c-1.1,-0.3 -2.2,-0.6 -3.2,-0.9c-0.5,3.1 -0.5,3.1 1.6,4.1c0.3,-1 0.8,-1.9 1.6,-3.2z" id="svg_125" fill="#b9b9b9"/>
   <path d="m110.7,290c1.2,6.2 2.2,7.7 4.2,6.7c-1.3,-2.2 -2.8,-4.4 -4.2,-6.7z" id="svg_126" fill="#b9b9b9"/>
   <path d="m88.1,291.4c-0.2,-0.1 -0.4,-0.2 -0.6,-0.3c-1.2,1.9 -2.5,4 -3.8,5.9c0.2,0.2 0.5,0.3 0.7,0.5c3,-1 2.4,-4.1 3.7,-6.1z" id="svg_127" fill="#b9b9b9"/>
   <path d="m114.5,80.9c0.3,0.4 0.6,0.8 1,1.1c1.2,-1.1 2.4,-2.3 3.8,-3.4c-0.2,-0.2 -0.3,-0.4 -0.5,-0.5c-1.6,0.9 -3,1.9 -4.3,2.8z" id="svg_128" fill="#b9b9b9"/>
   <ellipse cx="95.3" cy="301.7" rx="1.6" ry="2.3" id="svg_129" fill="#b9b9b9"/>
   <ellipse cx="103.2" cy="301.7" rx="1.6" ry="2.3" id="svg_130" fill="#b9b9b9"/>
   <path d="m108.9,303.1c-0.4,0.2 -0.8,0.1 -1,-0.3l-0.7,-1.2c-0.2,-0.4 -0.1,-0.8 0.3,-1s0.8,-0.1 1,0.3l0.7,1.2c0.2,0.3 0.1,0.8 -0.3,1z" id="svg_131" fill="#b9b9b9"/>
   <path d="m112.3,303.1c-0.4,0.2 -0.8,0.1 -1,-0.3l-0.7,-1.2c-0.2,-0.4 -0.1,-0.8 0.3,-1s0.8,-0.1 1,0.3l0.7,1.2c0.2,0.3 0.1,0.8 -0.3,1z" id="svg_132" fill="#b9b9b9"/>
   <path d="m114.8,302.2c-0.4,0.2 -0.8,0.1 -1,-0.3l-0.7,-1.2c-0.2,-0.4 -0.1,-0.8 0.3,-1s0.8,-0.1 1,0.3l0.7,1.2c0.2,0.4 0.1,0.9 -0.3,1z" id="svg_133" fill="#b9b9b9"/>
   <path d="m117.1,301.6c-0.4,0.2 -0.8,0.1 -1,-0.3l-0.7,-1.2c-0.2,-0.4 -0.1,-0.8 0.3,-1s0.8,-0.1 1,0.3l0.7,1.2c0.1,0.3 0,0.8 -0.3,1z" id="svg_134" fill="#b9b9b9"/>
   <path d="m89.2,303.6c0.4,0.2 0.8,0.1 1,-0.3l0.7,-1.2c0.2,-0.4 0.1,-0.8 -0.3,-1s-0.8,-0.1 -1,0.3l-0.7,1.2c-0.1,0.3 0,0.8 0.3,1z" id="svg_135" fill="#b9b9b9"/>
   <path d="m86.4,303.1c0.4,0.2 0.8,0.1 1,-0.3l0.7,-1.2c0.2,-0.4 0.1,-0.8 -0.3,-1s-0.8,-0.1 -1,0.3l-0.7,1.2c-0.2,0.3 0,0.6 0.3,1z" id="svg_136" fill="#b9b9b9"/>
   <path d="m83.9,302.2c0.4,0.2 0.8,0.1 1,-0.3l0.7,-1.2c0.2,-0.4 0.1,-0.8 -0.3,-1s-0.8,-0.1 -1,0.3l-0.7,1.2c-0.2,0.3 -0.1,0.8 0.3,1z" id="svg_137" fill="#b9b9b9"/>
   <path d="m81.7,301.5c0.4,0.2 0.8,0.1 1,-0.3l0.7,-1.2c0.2,-0.4 0.1,-0.8 -0.3,-1s-0.8,-0.1 -1,0.3l-0.7,1.2c-0.2,0.2 -0.1,0.7 0.3,1z" id="svg_138" fill="#b9b9b9"/>
  </g>
 </g>
</svg>